<svg preserveAspectRatio="none" width="100%" height="100%" overflow="visible" style="display: block;" viewBox="0 0 147.368 80" fill="none" xmlns="http://www.w3.org/2000/svg">
<g id="svg11921672747" clip-path="url(#clip0_0_4)">
<path id="Vector" d="M105.161 0.0203322C106.058 0.466648 106.568 1.65823 107.039 2.55507C107.107 2.6856 107.174 2.81191 107.246 2.94244C107.397 3.23296 107.553 3.51928 107.705 3.80981C107.991 4.34875 108.277 4.89191 108.563 5.43086C109.494 7.17823 110.42 8.9256 111.326 10.6898C112.235 12.4582 113.17 14.2056 114.1 15.9572C114.315 16.3656 114.526 16.774 114.732 17.1866C114.993 17.734 114.993 17.734 115.511 18.054C115.511 18.2309 115.511 18.4077 115.511 18.5888C115.654 18.9424 115.654 18.9424 115.86 19.313C115.936 19.4603 116.012 19.6035 116.092 19.7551C116.176 19.9109 116.265 20.0709 116.349 20.2309C116.479 20.4751 116.479 20.4751 116.614 20.7277C116.9 21.2666 117.191 21.8056 117.477 22.3403C117.789 22.9214 118.105 23.5066 118.416 24.0877C118.614 24.4582 118.816 24.8288 119.014 25.1993C119.38 25.8814 119.742 26.5593 120.067 27.2666C120.248 27.7214 120.248 27.7214 120.597 28.0582C120.74 28.3782 120.888 28.6982 121.031 29.0182C121.317 29.6245 121.62 30.214 121.928 30.8077C121.987 30.9172 122.046 31.0266 122.1 31.1403C122.34 31.5909 122.555 31.9782 122.892 32.3488C123.048 32.673 123.199 32.9972 123.342 33.3298C123.721 34.1677 124.13 34.9719 124.58 35.7677C124.808 36.1803 125.022 36.593 125.233 37.0182C125.3 37.1488 125.363 37.2793 125.435 37.4098C125.561 37.6709 125.692 37.9319 125.818 38.193C126.168 38.9424 126.168 38.9424 126.829 39.313C126.846 39.4393 126.867 39.5656 126.883 39.6919C127.048 40.454 127.305 41.0814 127.814 41.6372C127.966 41.9445 128.105 42.2603 128.243 42.5761C128.77 43.7382 129.359 44.854 129.97 45.9656C130.147 46.2856 130.319 46.6098 130.496 46.9298C131.06 47.9867 131.06 47.9867 131.696 48.993C131.915 49.3172 131.915 49.3172 132.079 49.8561C132.227 50.1298 132.374 50.4035 132.526 50.6772C132.614 50.833 132.702 50.993 132.795 51.153C132.98 51.4856 133.17 51.8182 133.359 52.1509C133.448 52.3109 133.532 52.4667 133.625 52.6309C133.705 52.774 133.789 52.9172 133.873 53.0688C134.05 53.4267 134.05 53.4267 134.05 53.7845C134.265 53.8435 134.483 53.9024 134.707 53.9656C134.597 54.0245 134.488 54.0835 134.378 54.1424C134.471 54.3109 134.559 54.4835 134.656 54.6561C135.498 56.2098 136.332 57.7677 137.166 59.3214C137.822 60.5467 138.475 61.7677 139.136 62.9845C139.822 64.2519 140.505 65.5235 141.187 66.7951C141.288 66.9803 141.389 67.1656 141.49 67.3593C141.587 67.5361 141.679 67.7088 141.776 67.8898C141.86 68.0498 141.945 68.2056 142.033 68.3656C142.172 68.6351 142.302 68.9045 142.425 69.1824C142.576 69.5361 142.576 69.5361 142.909 69.8645C143.073 70.1972 143.229 70.5382 143.38 70.8793C143.747 71.6919 144.13 72.4793 144.551 73.2582C144.66 73.2582 144.766 73.2582 144.879 73.2582C144.896 73.3888 144.913 73.5151 144.93 73.6498C145.056 74.2014 145.25 74.5593 145.536 75.0351C146.222 76.2561 146.222 76.2561 146.193 77.0098C145.902 77.5024 145.688 77.8182 145.208 78.0835C144.715 78.1045 144.227 78.1172 143.738 78.1214C143.582 78.1256 143.431 78.1256 143.271 78.1256C142.761 78.134 142.248 78.1382 141.734 78.1424C141.372 78.1509 141.014 78.1551 140.652 78.1593C139.688 78.1677 138.719 78.1761 137.755 78.1888C137.161 78.193 136.563 78.2014 135.97 78.2056C130.185 78.2645 124.408 78.273 118.627 78.0835C118.572 78.2014 118.517 78.3193 118.462 78.4414C118.462 78.3235 118.462 78.2014 118.462 78.0835C118.273 78.0877 118.083 78.0919 117.89 78.0961C113.246 78.2266 108.606 78.2898 103.961 78.2856C103.279 78.2856 102.597 78.2856 101.919 78.2856C100.298 78.2856 98.6772 78.2856 97.0561 78.2856C95.6077 78.2814 94.1593 78.2814 92.7109 78.2856C88.3403 78.2856 83.9782 78.2814 79.6077 78.2645C78.6014 78.2603 77.5951 78.2603 76.5888 78.2561C74.9888 78.2519 73.3888 78.2477 71.7888 78.2351C71.0561 78.2309 70.3235 78.2266 69.5909 78.2224C68.9214 78.2224 68.2519 78.2182 67.5782 78.2098C67.334 78.2098 67.094 78.2098 66.8498 78.2098C66.5172 78.2098 66.1888 78.2056 65.8561 78.2014C65.6751 78.1972 65.4898 78.1972 65.3003 78.1972C64.6603 78.0456 64.4077 77.7214 63.9909 77.1867C64.2393 75.9993 64.7445 75.014 65.2835 73.9488C65.3761 73.7635 65.473 73.5782 65.5698 73.3845C66.2856 71.9614 67.0224 70.5466 67.7719 69.1403C68.1298 68.4666 68.4751 67.793 68.7824 67.0898C69.0772 66.4709 69.0772 66.4709 69.4056 66.2898C69.5193 65.9951 69.6288 65.6961 69.734 65.3972C69.8646 65.1109 70.0035 64.833 70.1424 64.5509C70.2224 64.3909 70.3067 64.2309 70.3867 64.0667C70.4709 63.8982 70.5593 63.7298 70.6477 63.5572C70.7319 63.3803 70.8203 63.2077 70.9088 63.0309C71.3214 62.2098 71.7382 61.3972 72.1593 60.5845C72.2309 60.454 72.2982 60.3235 72.3698 60.1888C72.4961 59.9445 72.6224 59.7003 72.753 59.4561C73.073 58.8919 73.073 58.8919 73.1782 58.2519C73.2498 58.1761 73.3172 58.1045 73.3888 58.0288C73.7677 57.6077 73.9824 57.1445 74.2435 56.6309C74.3235 56.4709 74.3235 56.4709 74.4035 56.3067C74.5761 55.9614 74.7488 55.6161 74.9214 55.2709C75.0982 54.9172 75.2793 54.5635 75.4561 54.2098C75.574 53.974 75.6877 53.7424 75.8056 53.5109C76.3193 52.4835 76.8456 51.4688 77.3803 50.4624C77.6793 49.9235 77.6793 49.9235 77.7719 49.3172C77.8814 49.3172 77.9909 49.3172 78.1003 49.3172C78.1467 49.1909 78.1888 49.0645 78.2351 48.934C78.4372 48.4077 78.673 47.9277 78.9298 47.4309C79.0267 47.2414 79.1235 47.0519 79.2288 46.854C79.3298 46.6603 79.4309 46.4624 79.5361 46.2603C79.7382 45.873 79.9403 45.4856 80.1382 45.0982C80.2393 44.9045 80.3361 44.7151 80.4372 44.5214C80.7109 43.9867 80.9803 43.4519 81.2456 42.9172C81.6835 42.0414 82.1467 41.1909 82.6224 40.3445C83.073 39.5361 83.4898 38.7151 83.9067 37.8856C84.3782 36.934 84.8667 35.9909 85.3509 35.0477C85.4519 34.854 85.553 34.6561 85.6582 34.454C85.7551 34.2645 85.8519 34.0751 85.953 33.8772C86.0835 33.6245 86.0835 33.6245 86.2182 33.3635C86.3909 33.0351 86.5677 32.7151 86.7572 32.3951C86.8245 32.2603 86.8919 32.1298 86.9593 31.9909C86.9088 31.873 86.854 31.7551 86.7951 31.633C86.9593 31.633 87.1235 31.633 87.2877 31.633C87.3256 31.5151 87.3677 31.3972 87.4056 31.2793C87.6835 30.5761 88.0203 29.9193 88.3656 29.254C88.4372 29.1109 88.513 28.9677 88.5888 28.8203C88.8119 28.3909 89.0351 27.9572 89.2582 27.5235C89.3803 27.2835 89.5024 27.0477 89.6245 26.8077C90.1677 25.7551 90.7109 24.7066 91.2624 23.6666C91.3551 23.494 91.4477 23.3214 91.5403 23.1445C91.7172 22.8077 91.8982 22.4709 92.0793 22.134C92.1593 21.9782 92.2393 21.8266 92.3235 21.6666C92.3993 21.5319 92.4709 21.393 92.5467 21.254C92.7277 20.9214 92.7277 20.9214 92.7024 20.5551C92.8119 20.4414 92.8119 20.4414 92.9172 20.3235C93.2582 19.953 93.4519 19.5656 93.6835 19.1109C93.7761 18.9256 93.8688 18.7445 93.9656 18.5551C94.0624 18.3614 94.1593 18.1677 94.2645 17.9656C94.4666 17.5614 94.673 17.153 94.8835 16.7488C95.0351 16.4456 95.0351 16.4456 95.1909 16.1382C95.6877 15.174 96.2014 14.2182 96.7151 13.2666C97.1024 12.5424 97.4688 11.8098 97.8014 11.0561C98.0203 10.5888 98.2814 10.1509 98.5382 9.70875C98.8288 9.20349 99.1109 8.69402 99.3888 8.18454C99.4856 8.0077 99.5824 7.82665 99.6835 7.6456C99.9319 7.18665 99.9319 7.18665 100.008 6.76981C100.088 6.44139 100.088 6.44139 100.307 6.2056C100.862 5.59086 101.203 4.77823 101.595 4.02875C101.688 3.85612 101.776 3.6877 101.873 3.51086C101.957 3.34244 102.046 3.17823 102.134 3.00981C102.214 2.85823 102.294 2.70665 102.374 2.55086C102.585 2.14665 102.585 2.14665 102.547 1.62033C102.711 1.62033 102.871 1.62033 103.039 1.62033C103.098 1.41823 103.098 1.41823 103.153 1.21612C103.608 0.176122 104.163 -0.0807205 105.161 0.0203322Z" fill="var(--fill-0, white)"/>
<path id="Vector_2" d="M62.6739 13.2303C63.8023 13.9924 64.337 15.2808 64.9728 16.5019C65.0949 16.7377 65.2212 16.9692 65.3433 17.205C65.596 17.6808 65.8444 18.1524 66.0928 18.6282C66.5939 19.5798 67.0991 20.5271 67.6086 21.4703C67.697 21.6429 67.7897 21.8156 67.8865 21.9924C68.6065 23.3398 69.3391 24.6829 70.0676 26.0261C70.177 26.2282 70.2907 26.4303 70.4044 26.6408C70.8212 27.4113 71.2423 28.1819 71.6633 28.9524C72.716 30.8808 73.7602 32.8135 74.7749 34.7713C75.1454 35.4871 75.5202 36.1945 75.9286 36.885C76.0002 37.0071 76.0718 37.125 76.1433 37.2513C76.2697 37.4703 76.4044 37.6892 76.5391 37.9082C76.8718 38.4766 76.9518 38.7587 76.9054 39.445C76.8675 39.6387 76.8254 39.8282 76.7833 40.0303C76.7833 40.2071 76.7833 40.384 76.7833 40.565C76.4591 41.0998 76.4591 41.0998 76.2149 41.3566C75.9286 41.6766 75.7475 42.005 75.5454 42.3966C75.4654 42.5482 75.3854 42.6998 75.3054 42.8556C75.1791 43.0956 75.1791 43.0956 75.0528 43.344C74.9644 43.5124 74.876 43.6808 74.7875 43.8535C74.1686 45.045 73.5623 46.2408 72.9518 47.4408C72.4507 48.4261 71.9286 49.4029 71.3981 50.3713C70.5981 51.8492 69.8191 53.3398 69.0402 54.8303C68.9349 55.0324 68.8254 55.2387 68.716 55.445C68.6149 55.6429 68.5097 55.845 68.4044 56.0471C68.1897 56.4556 67.9749 56.8598 67.7518 57.2598C67.6507 57.4534 67.5412 57.6471 67.436 57.845C67.3391 58.0177 67.2465 58.1903 67.1454 58.3713C66.9139 58.7587 66.9139 58.7587 66.9391 59.1461C66.8339 59.1461 66.7244 59.1461 66.6107 59.1461C66.4044 59.664 66.2823 60.0008 66.2823 60.5734C66.0675 60.8134 65.8486 61.0534 65.6297 61.2892C65.4444 61.6008 65.2718 61.9208 65.1076 62.2492C65.0149 62.4345 64.9181 62.6198 64.8212 62.8135C64.7202 63.0113 64.6233 63.205 64.5223 63.4113C64.3118 63.8198 64.1054 64.2282 63.8991 64.6324C63.7981 64.8303 63.7012 65.024 63.6002 65.2261C63.1412 66.1313 62.6697 67.024 62.1939 67.9208C61.9833 68.3208 61.777 68.7208 61.5665 69.1208C58.6233 74.7377 58.6233 74.7377 57.5075 76.7545C57.4065 76.9356 57.3054 77.1124 57.2044 77.3019C56.9307 77.7229 56.9307 77.7229 56.4423 78.0808C56.0844 78.1398 56.0844 78.1398 55.6591 78.1566C55.4949 78.1608 55.3265 78.1692 55.1581 78.1777C54.9728 78.1819 54.7875 78.1861 54.5939 78.1903C54.396 78.1987 54.1981 78.2071 53.9918 78.2113C51.0444 78.304 48.097 78.2871 45.1497 78.2829C44.4633 78.2829 43.777 78.2829 43.0907 78.2829C40.7581 78.2871 38.4297 78.2787 36.097 78.2619C35.9286 78.2577 35.7644 78.2577 35.5918 78.2577C34.6149 78.2492 33.6339 78.2366 32.657 78.2198C32.3539 78.2156 32.0549 78.2113 31.7518 78.2113C31.3391 78.2071 30.9223 78.1987 30.5097 78.1903C30.3286 78.1903 30.3286 78.1903 30.1433 78.1903C29.356 78.165 28.9307 77.9882 28.3833 77.3692C28.1812 76.3545 28.6612 75.664 29.1412 74.8429C29.2928 74.5734 29.4444 74.3082 29.596 74.0387C29.6675 73.904 29.7433 73.7735 29.8191 73.6387C30.2612 72.8219 30.636 71.9713 31.0107 71.1124C31.1791 70.7377 31.3854 70.4177 31.6044 70.0766C32.2444 69.0366 32.7707 67.9419 33.3054 66.8387C33.9118 65.5882 34.5265 64.3545 35.2044 63.1503C35.6128 62.3966 35.9918 61.6261 36.3707 60.8513C37.1033 59.3777 37.8612 57.9166 38.657 56.4766C39.0149 55.824 39.3054 55.2724 39.377 54.4977C39.5412 54.4977 39.7012 54.4977 39.8697 54.4977C39.9075 54.3503 39.9497 54.1987 39.9918 54.0429C40.2233 53.3524 40.5265 52.7629 40.876 52.1313C41.3307 51.3987 41.3307 51.3987 41.5118 50.5692C41.6718 50.3882 41.836 50.2113 42.0002 50.0345C42.1518 49.7692 42.2907 49.4998 42.4212 49.2261C42.5012 49.0661 42.5812 48.9061 42.6612 48.7419C42.7454 48.5735 42.8297 48.4008 42.9139 48.224C43.5412 46.9566 44.177 45.6977 44.8507 44.4598C45.3602 43.5292 45.857 42.5987 46.3244 41.6429C46.5518 41.1882 46.7833 40.7377 47.0149 40.2829C47.1244 40.0682 47.1244 40.0682 47.2423 39.845C47.3897 39.5545 47.537 39.264 47.6886 38.9734C47.756 38.8429 47.8275 38.7082 47.8949 38.5735C47.9581 38.4513 48.0212 38.3335 48.0844 38.2113C48.257 37.8577 48.257 37.8577 48.4002 37.3482C48.6191 37.0492 48.8381 36.7545 49.057 36.4556C49.2212 36.1524 49.3812 35.8492 49.5286 35.5377C49.617 35.3608 49.7012 35.1882 49.7897 35.0071C49.8781 34.8219 49.9707 34.6366 50.0633 34.4471C50.6991 33.1503 51.3391 31.8661 52.0297 30.6029C52.6486 29.4787 53.2423 28.3377 53.8275 27.1882C53.9412 26.9566 53.9412 26.9566 54.0633 26.7208C54.1728 26.5061 54.1728 26.5061 54.2823 26.2829C54.3454 26.1566 54.4128 26.0303 54.476 25.8998C54.657 25.5335 54.657 25.5335 54.8002 25.0198C54.9097 25.0198 55.0149 25.0198 55.1286 25.0198C55.1707 24.8935 55.217 24.7629 55.2633 24.6324C55.4528 24.1356 55.6675 23.6808 55.9075 23.2135C56.0465 22.9482 56.0465 22.9482 56.1854 22.6787C56.2823 22.4892 56.3791 22.304 56.4802 22.1061C56.6318 21.8156 56.6318 21.8156 56.7875 21.5124C57.7728 19.6135 58.7749 17.7271 59.7939 15.8492C59.9707 15.525 60.1433 15.1966 60.316 14.8682C60.4044 14.7082 60.4886 14.544 60.577 14.3798C60.6528 14.2366 60.7286 14.0935 60.8086 13.9461C61.3139 13.1461 61.8444 13.125 62.6739 13.2303Z" fill="var(--fill-0, white)"/>
<path id="Vector_3" d="M26.0884 29.3095C27.141 30.2232 27.7305 31.6253 28.3663 32.8843C28.6905 33.5159 29.0316 34.1348 29.3684 34.758C30.0084 35.9327 30.6273 37.1116 31.2421 38.3032C31.4821 38.7832 31.4821 38.7832 31.8316 39.1369C31.9831 39.4232 32.1347 39.718 32.2779 40.0169C32.7916 41.0527 33.3179 42.0843 33.8484 43.1116C33.9873 43.3769 33.9873 43.3769 34.1305 43.6506C34.5431 44.4506 34.9642 45.2464 35.4147 46.0295C35.4821 46.1474 35.5537 46.2695 35.6252 46.3916C35.8063 46.7032 35.9916 47.0148 36.1768 47.3264C36.48 48.0211 36.5305 48.3748 36.4252 49.1411C36.1852 49.739 35.8863 50.2822 35.5747 50.838C35.3895 51.1748 35.2084 51.5074 35.0274 51.8443C34.9305 52.0169 34.8379 52.1895 34.741 52.3664C34.2821 53.2085 33.8484 54.059 33.4105 54.9138C32.6652 56.3538 31.9031 57.7853 31.1326 59.2127C30.4252 60.5264 29.7389 61.8443 29.0947 63.2001C28.6021 64.2359 28.0716 65.2464 27.5326 66.2569C26.8421 67.558 26.1852 68.8632 25.5958 70.219C25.4863 70.219 25.3768 70.219 25.2673 70.219C25.2084 70.3959 25.2084 70.3959 25.1495 70.5769C24.8758 71.2759 24.5431 71.9243 24.2021 72.5895C24.1305 72.7285 24.0589 72.8674 23.9831 73.0106C23.7558 73.4527 23.5284 73.8906 23.2968 74.3285C23.2252 74.4759 23.1495 74.619 23.0695 74.7664C22.8547 75.179 22.6358 75.5916 22.4168 76.0043C22.3158 76.1938 22.3158 76.1938 22.2147 76.3874C22.1516 76.5053 22.0884 76.6232 22.021 76.7453C21.9663 76.8506 21.9116 76.9516 21.8568 77.0569C21.5873 77.478 21.3768 77.7601 21.0021 78.0801C20.5052 78.1643 20.0673 78.2064 19.5705 78.2148C19.4231 78.2232 19.28 78.2274 19.1326 78.2316C17.3305 78.2864 15.5284 78.2738 13.7263 78.2569C13.3516 78.2527 12.981 78.2527 12.6063 78.2485C11.8358 78.2443 11.061 78.2359 10.2863 78.2274C9.29682 78.219 8.30735 78.2106 7.31366 78.2064C6.54735 78.2022 5.78103 78.1938 5.01472 78.1853C4.65261 78.1811 4.2863 78.1769 3.91998 78.1769C3.41051 78.1769 2.90103 78.1685 2.39577 78.1643C2.24419 78.1643 2.09261 78.1643 1.93682 78.1643C0.926296 78.1432 0.926295 78.1432 0.40419 77.8359C0.0673481 77.4316 0.0126112 77.1959 -2.03451e-05 76.6527C0.202085 76.0885 0.202085 76.0885 0.501032 75.4695C0.555769 75.3601 0.606295 75.2506 0.661032 75.1411C0.770506 74.918 0.87998 74.6948 0.989453 74.4759C1.14103 74.1727 1.28419 73.8653 1.43156 73.558C2.08419 72.2106 2.08419 72.2106 2.46314 72.0085C2.57261 71.6506 2.68209 71.2927 2.78735 70.9348C2.94735 70.598 3.11577 70.2611 3.2884 69.9285C3.38524 69.7432 3.4863 69.5537 3.58735 69.3601C3.6884 69.1664 3.78945 68.9685 3.89472 68.7706C4.58524 67.4569 5.25051 66.1474 5.8484 64.7832C6.05893 64.3538 6.29051 63.9959 6.56419 63.6127C6.71998 63.318 6.86735 63.0232 7.01472 62.7243C7.37261 62.0043 7.73051 61.2843 8.09682 60.5685C8.18945 60.3832 8.2863 60.1938 8.38314 60.0043C8.48419 59.8064 8.58103 59.6127 8.6863 59.4148C8.79156 59.2001 8.90103 58.9938 9.0063 58.779C9.17472 58.4548 9.34314 58.1264 9.50735 57.8022C9.8863 57.0653 10.261 56.3285 10.6358 55.5916C10.8379 55.1916 11.0442 54.7874 11.2505 54.3874C11.3516 54.1895 11.4484 53.9959 11.5537 53.7895C12.0716 52.7748 12.5937 51.7559 13.1158 50.7411C13.221 50.539 13.3263 50.3327 13.4358 50.1264C13.6337 49.739 13.8316 49.3559 14.0337 48.9685C14.4589 48.1432 14.8716 47.3095 15.2589 46.459C15.3768 46.2527 15.4947 46.0506 15.6168 45.8485C16.1095 45.0106 16.5221 44.1306 16.9389 43.2464C17.3558 42.3706 17.3558 42.3706 17.7179 42.1727C17.7642 42.0253 17.8063 41.8738 17.8526 41.7222C18.101 40.9306 18.48 40.2695 18.88 39.558C19.0273 39.2927 19.1789 39.0274 19.3263 38.7622C19.3895 38.6443 19.4568 38.5264 19.5242 38.4085C19.6926 38.0548 19.7684 37.7306 19.8526 37.3474C20.0126 37.1664 20.1768 36.9895 20.3452 36.8127C20.4 36.6359 20.4547 36.459 20.5095 36.278C20.6189 36.278 20.7242 36.278 20.8379 36.278C20.8758 36.1306 20.9137 35.9874 20.9558 35.8359C21.2126 35.0695 21.5537 34.3874 21.9242 33.6759C21.9958 33.5369 22.0716 33.3938 22.1431 33.2506C22.3621 32.8295 22.5852 32.4085 22.8042 31.9874C22.8673 31.8695 22.9347 31.7474 22.9979 31.6211C23.1663 31.3011 23.3389 30.9811 23.5116 30.6611C23.6126 30.4801 23.7095 30.299 23.8105 30.1138C24.4505 29.1874 25.0695 28.9474 26.0884 29.3095Z" fill="var(--fill-0, white)"/>
</g>
<defs>
<clipPath id="clip0_0_4">
<rect width="147.368" height="80" fill="white"/>
</clipPath>
</defs>
</svg>
