<svg preserveAspectRatio="none" width="100%" height="100%" overflow="visible" style="display: block;" viewBox="0 0 85.2211 46.2629" fill="none" xmlns="http://www.w3.org/2000/svg">
<g id="svg11921672747" clip-path="url(#clip0_0_5)">
<path id="Vector" d="M60.8134 0.0118043C61.332 0.269902 61.6266 0.958975 61.8993 1.47761C61.9383 1.55309 61.9772 1.62613 62.0186 1.70162C62.1063 1.86962 62.1964 2.0352 62.284 2.2032C62.4496 2.51487 62.6152 2.82897 62.7808 3.14063C63.3189 4.15111 63.8545 5.16159 64.378 6.18181C64.904 7.20446 65.4445 8.21494 65.9826 9.22785C66.1068 9.46404 66.2286 9.70022 66.3479 9.93884C66.4988 10.2554 66.4988 10.2554 66.7983 10.4404C66.7983 10.5427 66.7983 10.645 66.7983 10.7497C66.8811 10.9542 66.8811 10.9542 67.0004 11.1685C67.0442 11.2537 67.0881 11.3365 67.1343 11.4241C67.183 11.5142 67.2342 11.6067 67.2829 11.6993C67.3583 11.8405 67.3583 11.8405 67.4363 11.9866C67.6018 12.2982 67.7698 12.6099 67.9354 12.9191C68.1156 13.2552 68.2982 13.5936 68.4784 13.9296C68.5928 14.1439 68.7097 14.3582 68.8241 14.5724C69.036 14.9669 69.2454 15.3589 69.4329 15.768C69.5376 16.0309 69.5376 16.0309 69.7397 16.2257C69.8225 16.4108 69.9077 16.5958 69.9905 16.7809C70.156 17.1315 70.3313 17.4724 70.5091 17.8157C70.5432 17.879 70.5773 17.9423 70.6089 18.0081C70.7477 18.2686 70.8719 18.4926 71.0667 18.7069C71.1568 18.8944 71.2444 19.0818 71.3272 19.2742C71.5464 19.7587 71.7825 20.2238 72.0431 20.684C72.1746 20.9226 72.2987 21.1612 72.4205 21.4072C72.4594 21.4826 72.496 21.5581 72.5374 21.6336C72.6104 21.7846 72.6859 21.9355 72.7589 22.0865C72.961 22.5199 72.961 22.5199 73.3433 22.7342C73.353 22.8072 73.3652 22.8803 73.375 22.9533C73.4699 23.394 73.6184 23.7568 73.9131 24.0782C74.0007 24.256 74.0811 24.4386 74.1614 24.6212C74.4658 25.2932 74.8067 25.9385 75.1597 26.5813C75.262 26.7663 75.3618 26.9538 75.4641 27.1389C75.7904 27.75 75.7904 27.75 76.158 28.332C76.2846 28.5195 76.2846 28.5195 76.3796 28.8311C76.4648 28.9894 76.55 29.1477 76.6377 29.3059C76.6888 29.396 76.74 29.4886 76.7935 29.5811C76.9007 29.7734 77.0102 29.9658 77.1198 30.1581C77.1709 30.2507 77.2196 30.3408 77.2732 30.4357C77.3195 30.5185 77.3682 30.6013 77.4169 30.689C77.5191 30.8959 77.5191 30.8959 77.5191 31.1029C77.6433 31.137 77.7699 31.1711 77.899 31.2076C77.8357 31.2417 77.7724 31.2758 77.709 31.3098C77.7626 31.4072 77.8138 31.5071 77.8698 31.6069C78.3567 32.5054 78.8388 33.4063 79.321 34.3048C79.7008 35.0133 80.0782 35.7194 80.4605 36.4231C80.8574 37.156 81.2518 37.8913 81.6463 38.6267C81.7047 38.7338 81.7631 38.841 81.8216 38.953C81.8776 39.0552 81.9312 39.1551 81.9872 39.2598C82.0359 39.3523 82.0845 39.4424 82.1357 39.5349C82.216 39.6907 82.2915 39.8466 82.3621 40.0073C82.4498 40.2118 82.4498 40.2118 82.6421 40.4017C82.7371 40.5941 82.8272 40.7913 82.9148 40.9885C83.1267 41.4585 83.3483 41.9138 83.5917 42.3642C83.6551 42.3642 83.7159 42.3642 83.7817 42.3642C83.7914 42.4397 83.8011 42.5128 83.8109 42.5907C83.8839 42.9097 83.9959 43.1166 84.1615 43.3918C84.5584 44.0979 84.5584 44.0979 84.5414 44.5337C84.3733 44.8186 84.2492 45.0012 83.9716 45.1546C83.6867 45.1668 83.4043 45.1741 83.1218 45.1765C83.0317 45.179 82.9441 45.179 82.8515 45.179C82.5569 45.1838 82.2599 45.1863 81.9628 45.1887C81.7534 45.1936 81.5464 45.196 81.337 45.1984C80.7794 45.2033 80.2194 45.2082 79.6618 45.2155C79.3185 45.2179 78.9728 45.2228 78.6294 45.2252C75.2839 45.2593 71.9432 45.2642 68.6001 45.1546C68.5685 45.2228 68.5368 45.291 68.5052 45.3616C68.5052 45.2934 68.5052 45.2228 68.5052 45.1546C68.3956 45.1571 68.286 45.1595 68.174 45.1619C65.4884 45.2374 62.8051 45.2739 60.1194 45.2715C59.725 45.2715 59.3305 45.2715 58.9385 45.2715C58.0011 45.2715 57.0636 45.2715 56.1262 45.2715C55.2886 45.2691 54.451 45.2691 53.6134 45.2715C51.086 45.2715 48.5635 45.2691 46.036 45.2593C45.4541 45.2569 44.8722 45.2569 44.2902 45.2544C43.365 45.252 42.4397 45.2496 41.5145 45.2423C41.0908 45.2398 40.6671 45.2374 40.2434 45.235C39.8563 45.235 39.4691 45.2325 39.0796 45.2277C38.9383 45.2277 38.7996 45.2277 38.6583 45.2277C38.466 45.2277 38.2761 45.2252 38.0837 45.2228C37.979 45.2204 37.8719 45.2204 37.7623 45.2204C37.3922 45.1327 37.2461 44.9452 37.005 44.636C37.1487 43.9493 37.4409 43.3796 37.7526 42.7636C37.8061 42.6564 37.8621 42.5493 37.9181 42.4373C38.3321 41.6143 38.7582 40.7962 39.1916 39.9829C39.3985 39.5933 39.5982 39.2038 39.7759 38.7971C39.9464 38.4392 39.9464 38.4392 40.1363 38.3345C40.2021 38.1641 40.2654 37.9912 40.3262 37.8183C40.4017 37.6527 40.4821 37.492 40.5624 37.3289C40.6087 37.2364 40.6574 37.1438 40.7036 37.0489C40.7523 36.9515 40.8035 36.8541 40.8546 36.7543C40.9033 36.652 40.9544 36.5522 41.0056 36.4499C41.2442 35.9751 41.4852 35.5052 41.7287 35.0352C41.7701 34.9597 41.8091 34.8843 41.8505 34.8063C41.9235 34.6651 41.9966 34.5239 42.072 34.3827C42.2571 34.0564 42.2571 34.0564 42.318 33.6863C42.3594 33.6425 42.3983 33.6011 42.4397 33.5572C42.6589 33.3138 42.783 33.0459 42.934 32.7489C42.9803 32.6563 42.9803 32.6563 43.0265 32.5614C43.1264 32.3617 43.2262 32.1621 43.326 31.9624C43.4283 31.7579 43.533 31.5533 43.6352 31.3488C43.7034 31.2125 43.7692 31.0785 43.8373 30.9446C44.1344 30.3505 44.4388 29.7637 44.748 29.1818C44.9209 28.8701 44.9209 28.8701 44.9744 28.5195C45.0377 28.5195 45.101 28.5195 45.1644 28.5195C45.1911 28.4464 45.2155 28.3734 45.2423 28.2979C45.3591 27.9935 45.4955 27.716 45.644 27.4286C45.7 27.3191 45.756 27.2095 45.8169 27.0951C45.8753 26.9831 45.9338 26.8686 45.9946 26.7517C46.1115 26.5277 46.2284 26.3037 46.3428 26.0797C46.4013 25.9677 46.4573 25.8581 46.5157 25.7461C46.674 25.4369 46.8298 25.1277 46.9832 24.8184C47.2364 24.312 47.5043 23.8201 47.7794 23.3307C48.04 22.8632 48.281 22.3884 48.5221 21.9087C48.7948 21.3585 49.0772 20.813 49.3572 20.2676C49.4157 20.1556 49.4741 20.0412 49.535 19.9243C49.591 19.8147 49.647 19.7052 49.7054 19.5907C49.7809 19.4446 49.7809 19.4446 49.8588 19.2937C49.9586 19.1038 50.0609 18.9187 50.1705 18.7337C50.2094 18.6557 50.2484 18.5803 50.2874 18.4999C50.2581 18.4317 50.2265 18.3636 50.1924 18.2929C50.2874 18.2929 50.3823 18.2929 50.4773 18.2929C50.4992 18.2248 50.5235 18.1566 50.5455 18.0884C50.7062 17.6818 50.9009 17.3019 51.1006 16.9172C51.142 16.8344 51.1858 16.7517 51.2297 16.6664C51.3587 16.4181 51.4878 16.1673 51.6168 15.9165C51.6874 15.7777 51.758 15.6413 51.8286 15.5026C52.1427 14.8938 52.4568 14.2875 52.7758 13.6861C52.8294 13.5863 52.8829 13.4865 52.9365 13.3842C53.0388 13.1894 53.1435 12.9946 53.2482 12.7998C53.2944 12.7097 53.3407 12.6221 53.3894 12.5296C53.4332 12.4516 53.4746 12.3713 53.5184 12.2909C53.6231 12.0986 53.6232 12.0986 53.6085 11.8867C53.6718 11.821 53.6718 11.821 53.7327 11.7528C53.9299 11.5386 54.042 11.3146 54.1759 11.0516C54.2294 10.9444 54.283 10.8397 54.339 10.7302C54.395 10.6182 54.451 10.5062 54.5119 10.3893C54.6288 10.1555 54.7481 9.91936 54.8698 9.68561C54.9575 9.5103 54.9575 9.5103 55.0476 9.33255C55.3349 8.77496 55.6319 8.22224 55.929 7.67196C56.153 7.25316 56.3648 6.82949 56.5572 6.39364C56.6838 6.12337 56.8348 5.87014 56.9833 5.61448C57.1513 5.32229 57.3144 5.02767 57.4751 4.73305C57.5311 4.63079 57.5871 4.52609 57.6456 4.42139C57.7892 4.15598 57.7892 4.15598 57.8331 3.91493C57.8793 3.72501 57.8793 3.72501 58.0059 3.58865C58.3274 3.23316 58.5246 2.76323 58.751 2.32982C58.8046 2.22999 58.8557 2.13259 58.9117 2.03033C58.9604 1.93293 59.0116 1.83797 59.0627 1.74057C59.109 1.65292 59.1552 1.56526 59.2015 1.47517C59.3232 1.24142 59.3232 1.24142 59.3013 0.937061C59.3963 0.937061 59.4888 0.937061 59.5862 0.937061C59.6203 0.820187 59.6203 0.820187 59.6519 0.703312C59.9149 0.101895 60.2363 -0.046633 60.8134 0.0118043Z" fill="var(--fill-0, #111110)"/>
<path id="Vector_2" d="M36.2431 7.65091C36.8956 8.09163 37.2049 8.8367 37.5725 9.54282C37.6432 9.67918 37.7162 9.81309 37.7868 9.94945C37.9329 10.2246 38.0766 10.4973 38.2202 10.7724C38.51 11.3227 38.8022 11.8706 39.0968 12.416C39.1479 12.5158 39.2015 12.6157 39.2575 12.7179C39.6739 13.4971 40.0975 14.2738 40.5188 15.0505C40.5821 15.1674 40.6478 15.2843 40.7136 15.406C40.9546 15.8516 41.1981 16.2972 41.4416 16.7428C42.0503 17.858 42.6542 18.9756 43.241 20.1078C43.4552 20.5217 43.6719 20.9308 43.9081 21.3301C43.9495 21.4007 43.9909 21.4689 44.0323 21.5419C44.1053 21.6686 44.1833 21.7952 44.2612 21.9218C44.4535 22.2505 44.4998 22.4136 44.473 22.8105C44.4511 22.9225 44.4268 23.0321 44.4024 23.149C44.4024 23.2512 44.4024 23.3535 44.4024 23.4582C44.2149 23.7674 44.2149 23.7674 44.0737 23.916C43.9081 24.101 43.8034 24.2909 43.6865 24.5174C43.6403 24.605 43.594 24.6927 43.5478 24.7828C43.4747 24.9216 43.4747 24.9216 43.4017 25.0652C43.3505 25.1626 43.2994 25.26 43.2483 25.3598C42.8903 26.0489 42.5397 26.7404 42.1867 27.4344C41.8969 28.0041 41.595 28.569 41.2882 29.1291C40.8256 29.9837 40.3751 30.8456 39.9246 31.7076C39.8638 31.8245 39.8005 31.9438 39.7372 32.0631C39.6787 32.1775 39.6179 32.2944 39.557 32.4113C39.4328 32.6475 39.3086 32.8812 39.1796 33.1125C39.1211 33.2245 39.0578 33.3365 38.997 33.451C38.941 33.5508 38.8874 33.6506 38.8289 33.7553C38.695 33.9793 38.695 33.9793 38.7096 34.2034C38.6488 34.2034 38.5855 34.2034 38.5197 34.2034C38.4004 34.5028 38.3298 34.6976 38.3298 35.0288C38.2056 35.1676 38.079 35.3064 37.9524 35.4427C37.8453 35.6229 37.7454 35.808 37.6505 35.9979C37.5969 36.105 37.5409 36.2121 37.4849 36.3241C37.4265 36.4386 37.3705 36.5506 37.312 36.6699C37.1903 36.9061 37.071 37.1423 36.9516 37.376C36.8932 37.4905 36.8372 37.6025 36.7788 37.7193C36.5134 38.2428 36.2407 38.759 35.9655 39.2777C35.8438 39.509 35.7245 39.7403 35.6027 39.9716C33.9007 43.2197 33.9007 43.2197 33.2555 44.3861C33.1971 44.4908 33.1386 44.593 33.0802 44.7026C32.9219 44.9461 32.9219 44.9461 32.6395 45.153C32.4325 45.1871 32.4325 45.1871 32.1866 45.1969C32.0916 45.1993 31.9942 45.2042 31.8968 45.209C31.7897 45.2115 31.6826 45.2139 31.5705 45.2164C31.4561 45.2212 31.3417 45.2261 31.2224 45.2285C29.5179 45.2821 27.8135 45.2724 26.1091 45.2699C25.7122 45.2699 25.3153 45.2699 24.9184 45.2699C23.5695 45.2724 22.223 45.2675 20.8741 45.2577C20.7767 45.2553 20.6817 45.2553 20.5819 45.2553C20.017 45.2504 19.4497 45.2431 18.8848 45.2334C18.7095 45.231 18.5366 45.2285 18.3613 45.2285C18.1227 45.2261 17.8816 45.2212 17.643 45.2164C17.5383 45.2164 17.5383 45.2164 17.4312 45.2164C16.9758 45.2017 16.7299 45.0995 16.4134 44.7416C16.2965 44.1547 16.5741 43.7554 16.8517 43.2806C16.9393 43.1248 17.027 42.9714 17.1146 42.8156C17.156 42.7376 17.1998 42.6622 17.2437 42.5842C17.4993 42.1119 17.716 41.62 17.9327 41.1233C18.0301 40.9066 18.1494 40.7216 18.2761 40.5243C18.6462 39.9229 18.9505 39.2898 19.2598 38.6519C19.6104 37.9287 19.9659 37.2153 20.3579 36.5189C20.5941 36.0831 20.8132 35.6375 21.0324 35.1895C21.456 34.3373 21.8943 33.4924 22.3545 32.6596C22.5615 32.2822 22.7295 31.9633 22.7709 31.5152C22.8658 31.5152 22.9583 31.5152 23.0557 31.5152C23.0777 31.43 23.102 31.3424 23.1264 31.2523C23.2603 30.853 23.4356 30.5121 23.6377 30.1468C23.9007 29.7232 23.9007 29.7232 24.0054 29.2435C24.0979 29.1388 24.1928 29.0365 24.2878 28.9343C24.3755 28.7809 24.4558 28.625 24.5313 28.4668C24.5775 28.3742 24.6238 28.2817 24.6701 28.1868C24.7188 28.0894 24.7675 27.9895 24.8162 27.8873C25.179 27.1544 25.5466 26.4263 25.9362 25.7105C26.2308 25.1724 26.5182 24.6343 26.7884 24.0815C26.9199 23.8186 27.0538 23.558 27.1878 23.2951C27.2511 23.1709 27.2511 23.1709 27.3192 23.0418C27.4045 22.8738 27.4897 22.7058 27.5773 22.5378C27.6163 22.4623 27.6577 22.3844 27.6966 22.3065C27.7332 22.2359 27.7697 22.1677 27.8062 22.0971C27.906 21.8926 27.906 21.8926 27.9888 21.5979C28.1154 21.4251 28.2421 21.2546 28.3687 21.0818C28.4636 20.9064 28.5562 20.7311 28.6414 20.5509C28.6925 20.4487 28.7412 20.3489 28.7923 20.2442C28.8435 20.137 28.897 20.0299 28.9506 19.9203C29.3183 19.1704 29.6884 18.4277 30.0877 17.6973C30.4456 17.0471 30.7889 16.3873 31.1274 15.7226C31.1931 15.5886 31.1931 15.5886 31.2638 15.4523C31.3271 15.3281 31.3271 15.3281 31.3904 15.1991C31.4269 15.126 31.4658 15.053 31.5024 14.9775C31.6071 14.7657 31.6071 14.7657 31.6899 14.4686C31.7532 14.4686 31.814 14.4686 31.8798 14.4686C31.9041 14.3956 31.9309 14.3201 31.9577 14.2446C32.0673 13.9573 32.1914 13.6943 32.3302 13.424C32.4106 13.2706 32.4106 13.2706 32.4909 13.1148C32.5469 13.0052 32.6029 12.8981 32.6614 12.7837C32.749 12.6156 32.749 12.6157 32.8391 12.4403C33.4089 11.3422 33.9884 10.2514 34.5776 9.16541C34.6799 8.97793 34.7797 8.78801 34.8796 8.59809C34.9307 8.50556 34.9794 8.4106 35.0305 8.31564C35.0743 8.23285 35.1182 8.15007 35.1644 8.06485C35.4566 7.60222 35.7634 7.59004 36.2431 7.65091Z" fill="var(--fill-0, #111110)"/>
<path id="Vector_3" d="M15.0864 16.9493C15.6951 17.4777 16.036 18.2885 16.4037 19.0165C16.5911 19.3818 16.7884 19.7397 16.9832 20.1001C17.3533 20.7794 17.7112 21.4612 18.0667 22.1502C18.2055 22.4278 18.2055 22.4278 18.4076 22.6323C18.4952 22.7979 18.5829 22.9684 18.6657 23.1412C18.9627 23.7402 19.2671 24.3368 19.5739 24.9309C19.6542 25.0843 19.6542 25.0843 19.737 25.2425C19.9756 25.7052 20.2191 26.1654 20.4797 26.6183C20.5186 26.6864 20.56 26.757 20.6014 26.8277C20.7061 27.0078 20.8132 27.188 20.9204 27.3682C21.0957 27.77 21.1249 27.9745 21.064 28.4176C20.9252 28.7634 20.7524 29.0775 20.5722 29.3989C20.465 29.5937 20.3603 29.786 20.2556 29.9808C20.1996 30.0807 20.1461 30.1805 20.0901 30.2828C19.8247 30.7697 19.5739 31.2616 19.3206 31.7559C18.8897 32.5886 18.449 33.4165 18.0034 34.2419C17.5943 35.0016 17.1974 35.7637 16.8249 36.5477C16.54 37.1467 16.2332 37.7311 15.9215 38.3155C15.5222 39.0678 15.1424 39.8226 14.8015 40.6067C14.7382 40.6067 14.6749 40.6067 14.6116 40.6067C14.5775 40.7089 14.5775 40.7089 14.5434 40.8136C14.3851 41.2178 14.1928 41.5928 13.9955 41.9775C13.9542 42.0579 13.9128 42.1382 13.8689 42.221C13.7375 42.4767 13.606 42.7299 13.472 42.9831C13.4307 43.0683 13.3868 43.1511 13.3406 43.2364C13.2164 43.475 13.0898 43.7136 12.9632 43.9522C12.9047 44.0618 12.9047 44.0618 12.8463 44.1738C12.8098 44.242 12.7732 44.3101 12.7343 44.3808C12.7026 44.4416 12.671 44.5001 12.6393 44.5609C12.4835 44.8044 12.3617 44.9676 12.145 45.1526C11.8577 45.2013 11.6045 45.2257 11.3172 45.2305C11.232 45.2354 11.1492 45.2378 11.0639 45.2403C10.0218 45.2719 8.97968 45.2646 7.93755 45.2549C7.72084 45.2524 7.50657 45.2524 7.28987 45.25C6.84428 45.2476 6.39627 45.2427 5.94825 45.2378C5.37605 45.233 4.80385 45.2281 4.22922 45.2257C3.78607 45.2232 3.34292 45.2184 2.89977 45.2135C2.69037 45.2111 2.47853 45.2086 2.2667 45.2086C1.97208 45.2086 1.67745 45.2037 1.38527 45.2013C1.29761 45.2013 1.20996 45.2013 1.11987 45.2013C0.535492 45.1891 0.535492 45.1891 0.233566 45.0114C0.0387751 44.7776 0.00712156 44.6413 -0.000183105 44.3272C0.116691 44.0009 0.116691 44.0009 0.289568 43.643C0.321222 43.5797 0.350441 43.5164 0.382094 43.4531C0.445401 43.324 0.508708 43.195 0.572015 43.0683C0.659671 42.893 0.742457 42.7153 0.827679 42.5375C1.20509 41.7584 1.20509 41.7584 1.42423 41.6415C1.48753 41.4345 1.55084 41.2276 1.61171 41.0206C1.70424 40.8258 1.80163 40.631 1.90146 40.4387C1.95747 40.3315 2.0159 40.222 2.07434 40.11C2.13278 39.998 2.19122 39.8835 2.25209 39.7691C2.65141 39.0094 3.03612 38.2521 3.38188 37.4632C3.50362 37.2149 3.63754 37.0079 3.79581 36.7863C3.8859 36.6159 3.97112 36.4455 4.05634 36.2726C4.2633 35.8562 4.47027 35.4398 4.6821 35.0259C4.73567 34.9188 4.79167 34.8092 4.84768 34.6996C4.90611 34.5852 4.96212 34.4732 5.02299 34.3588C5.08386 34.2346 5.14717 34.1153 5.20804 33.9911C5.30544 33.8036 5.40283 33.6137 5.49779 33.4262C5.71693 33.0001 5.93364 32.574 6.15034 32.1479C6.26722 31.9166 6.38653 31.6828 6.50584 31.4515C6.56427 31.3371 6.62028 31.2251 6.68115 31.1057C6.98064 30.5189 7.28256 29.9297 7.58449 29.3429C7.64536 29.226 7.70623 29.1067 7.76954 28.9874C7.88398 28.7634 7.99842 28.5418 8.1153 28.3178C8.36122 27.8406 8.59984 27.3585 8.82385 26.8666C8.89203 26.7473 8.9602 26.6304 9.03081 26.5136C9.3157 26.029 9.55431 25.5201 9.79537 25.0088C10.0364 24.5023 10.0364 24.5023 10.2458 24.3879C10.2726 24.3027 10.297 24.215 10.3237 24.1274C10.4674 23.6696 10.6865 23.2873 10.9179 22.8758C11.0031 22.7224 11.0907 22.569 11.1759 22.4156C11.2125 22.3475 11.2514 22.2793 11.2904 22.2111C11.3878 22.0066 11.4316 21.8191 11.4803 21.5975C11.5728 21.4928 11.6678 21.3905 11.7652 21.2883C11.7968 21.186 11.8285 21.0838 11.8602 20.9791C11.9235 20.9791 11.9843 20.9791 12.0501 20.9791C12.072 20.8938 12.0939 20.811 12.1183 20.7234C12.2668 20.2802 12.464 19.8858 12.6783 19.4743C12.7197 19.3939 12.7635 19.3112 12.8049 19.2284C12.9315 18.9849 13.0606 18.7414 13.1872 18.4979C13.2237 18.4297 13.2626 18.3591 13.2992 18.2861C13.3966 18.101 13.4964 17.916 13.5962 17.7309C13.6547 17.6262 13.7107 17.5215 13.7691 17.4144C14.1392 16.8787 14.4971 16.7399 15.0864 16.9493Z" fill="var(--fill-0, #111110)"/>
</g>
<defs>
<clipPath id="clip0_0_5">
<rect width="85.2211" height="46.2629" fill="white"/>
</clipPath>
</defs>
</svg>
