<svg preserveAspectRatio="none" width="100%" height="100%" overflow="visible" style="display: block;" viewBox="0 0 32 32" fill="none" xmlns="http://www.w3.org/2000/svg">
<g id="tabler-icon-file-text-shield">
<path id="Vector" d="M17.3333 4V9.33333C17.3328 9.50858 17.3669 9.68219 17.4338 9.8442C17.5006 10.0062 17.5988 10.1534 17.7227 10.2773C17.8466 10.4012 17.9938 10.4994 18.1558 10.5662C18.3178 10.6331 18.4914 10.6672 18.6667 10.6667H24M24 15.3333L24 10.6667L17.3333 4H8C7.29276 4 6.61448 4.28095 6.11438 4.78105C5.61429 5.28115 5.33333 5.95942 5.33333 6.66667V25.3333C5.33333 26.0406 5.61429 26.7188 6.11438 27.2189C6.61448 27.719 7.29276 28 8 28H14.6667M10.6667 12H12M10.6667 17.3255H14.6667M10.6667 22.6628H13.3333M28 21.3255C28 26.6588 24.6667 29.3255 23.3333 29.3255C22 29.3255 18.6667 26.6588 18.6667 21.3255C20 21.3255 22 20.6589 23.3333 19.3255C24.6667 20.6589 26.6667 21.3255 28 21.3255Z" stroke="var(--stroke-0, #0047D4)" stroke-width="2.4" stroke-linecap="round" stroke-linejoin="round"/>
</g>
</svg>
