<svg preserveAspectRatio="none" width="100%" height="100%" overflow="visible" style="display: block;" viewBox="0 0 35 35" fill="none" xmlns="http://www.w3.org/2000/svg">
<g id="tabler-icon-database">
<path id="Vector" d="M5.83333 8.75C5.83333 9.91032 7.0625 11.0231 9.25042 11.8436C11.4383 12.6641 14.4058 13.125 17.5 13.125C20.5942 13.125 23.5617 12.6641 25.7496 11.8436C27.9375 11.0231 29.1667 9.91032 29.1667 8.75M5.83333 17.5V8.75C5.83333 7.58968 7.0625 6.47688 9.25042 5.65641C11.4383 4.83594 14.4058 4.375 17.5 4.375C20.5942 4.375 23.5617 4.83594 25.7496 5.65641C27.9375 6.47688 29.1667 7.58968 29.1667 8.75V17.5M5.83333 17.5C5.83333 18.6603 7.0625 19.7731 9.25042 20.5936C11.4383 21.4141 14.4058 21.875 17.5 21.875C20.5942 21.875 23.5617 21.4141 25.7496 20.5936C27.9375 19.7731 29.1667 18.6603 29.1667 17.5M5.83333 17.5V26.25C5.83333 27.4103 7.0625 28.5231 9.25042 29.3436C11.4383 30.1641 14.4058 30.625 17.5 30.625C20.5942 30.625 23.5617 30.1641 25.7496 29.3436C27.9375 28.5231 29.1667 27.4103 29.1667 26.25V17.5" stroke="var(--stroke-0, #0047D4)" stroke-width="2.55" stroke-linecap="round" stroke-linejoin="round"/>
</g>
</svg>
