<svg preserveAspectRatio="none" width="100%" height="100%" overflow="visible" style="display: block;" viewBox="0 0 37 37" fill="none" xmlns="http://www.w3.org/2000/svg">
<g id="tabler-icon-shield-half">
<path id="Vector" d="M18.4997 32.375C16.0997 31.7525 13.8493 30.6538 11.8822 29.1444C9.91514 27.635 8.27157 25.7455 7.04916 23.5883C5.82675 21.4311 5.05045 19.0502 4.76639 16.5871C4.48232 14.1239 4.69629 11.6288 5.39558 9.25C10.1987 9.46979 14.8987 7.81097 18.4997 4.625C22.1008 7.81097 26.8008 9.46979 31.6039 9.25C32.3032 11.6288 32.5172 14.1239 32.2331 16.5871C31.949 19.0502 31.1727 21.4311 29.9503 23.5883C28.7279 25.7455 27.0843 27.635 25.1173 29.1444C23.1502 30.6538 20.8998 31.7525 18.4997 32.375ZM18.4997 4.625V32.375" stroke="var(--stroke-0, #0047D4)" stroke-width="2.8" stroke-linecap="round" stroke-linejoin="round"/>
</g>
</svg>
